<svg xmlns="http://www.w3.org/2000/svg" viewBox="0 0 500 500" role="img" aria-labelledby="title desc">
  <title id="title">Personal R icon — Light Teal</title>
  <desc id="desc">The pixel-backslash R icon in a cool light and teal treatment.</desc>
  <defs>
    <linearGradient id="slash" x1="160" y1="112" x2="432" y2="448" gradientUnits="userSpaceOnUse">
      <stop offset="0" stop-color="#003f4b"/>
      <stop offset="0.52" stop-color="#005f73"/>
      <stop offset="1" stop-color="#008fa6"/>
    </linearGradient>
    <radialGradient id="contact" cx="315" cy="336" r="112" gradientUnits="userSpaceOnUse" gradientTransform="matrix(1 0 0 0.54 0 154.56)">
      <stop offset="0" stop-color="#071215" stop-opacity="0.56"/>
      <stop offset="0.22" stop-color="#0b1c20" stop-opacity="0.44"/>
      <stop offset="0.52" stop-color="#12343a" stop-opacity="0.22"/>
      <stop offset="0.78" stop-color="#275158" stop-opacity="0.07"/>
      <stop offset="1" stop-color="#275158" stop-opacity="0"/>
    </radialGradient>
  </defs>

  <path fill="url(#slash)" d="M160 112H228V128H240V144H248V160H260V176H268V192H280V208H288V224H300V240H308V256H320V272H328V288H340V304H348V320H360V336H368V352H380V368H388V384H400V400H408V416H420V432H432V448H336V432H324V416H316V400H308V384H300V368H292V352H280V336H272V320H264V304H256V288H248V272H236V256H228V240H220V224H212V208H204V192H192V176H184V160H176V144H168V128H160Z"/>
  <path fill="url(#contact)" d="M272 320H360V336H368V352H380V368H388V384H400V400H408V416H420V432H432V448H336V432H324V416H316V400H308V384H300V368H292V352H280V336H272Z"/>
  <path fill="#101416" d="M96 64H286C382 64 430 121 430 206C430 295 376 344 287 344H194V448H96V64ZM194 145V263H280C317 263 338 243 338 204C338 166 317 145 280 145H194Z"/>
</svg>
